<?xml version="1.0" standalone="no"?>
<!DOCTYPE svg PUBLIC "-//W3C//DTD SVG 20010904//EN"
 "http://www.w3.org/TR/2001/REC-SVG-20010904/DTD/svg10.dtd">
<svg version="1.0" xmlns="http://www.w3.org/2000/svg"
 width="1040.000000pt" height="1040.000000pt" viewBox="0 0 1040.000000 1040.000000"
 preserveAspectRatio="xMidYMid meet">
<metadata>
Created by potrace 1.14, written by Peter Selinger 2001-2017
</metadata>
<g transform="translate(0.000000,1040.000000) scale(0.100000,-0.100000)"
fill="#000000" stroke="none">
<path d="M10046 8939 c-173 -84 -489 -371 -766 -695 -69 -81 -88 -103 -120
-144 -19 -24 -56 -70 -82 -102 -27 -31 -48 -61 -48 -67 0 -5 -3 -11 -7 -13 -5
-1 -25 -25 -45 -53 -21 -27 -42 -55 -48 -62 -5 -7 -10 -16 -10 -22 0 -5 -4
-11 -9 -13 -11 -4 -217 -313 -285 -428 -15 -25 -31 -52 -36 -60 -21 -34 -98
-168 -133 -235 -12 -22 -24 -42 -27 -45 -3 -3 -10 -14 -16 -25 -32 -60 -79
-144 -95 -170 -10 -16 -34 -61 -55 -100 -20 -38 -40 -74 -44 -80 -4 -5 -25
-41 -46 -80 -21 -38 -82 -151 -136 -250 -54 -99 -98 -183 -98 -187 0 -4 -5 -8
-12 -8 -6 0 -8 -3 -5 -6 4 -4 -1 -19 -11 -33 -9 -14 -26 -44 -37 -66 -11 -22
-22 -42 -25 -45 -4 -3 -12 -20 -19 -37 -8 -18 -17 -33 -22 -33 -5 0 -8 -3 -7
-7 2 -9 -24 -61 -114 -221 -10 -18 -43 -81 -74 -140 -32 -59 -62 -110 -68
-114 -6 -4 -7 -8 -2 -8 5 0 4 -6 -2 -12 -5 -7 -25 -42 -44 -78 -20 -36 -46
-85 -60 -110 -60 -109 -105 -192 -156 -290 -121 -235 -146 -280 -154 -280 -4
0 -8 -6 -8 -12 0 -21 -87 -98 -109 -98 -62 0 -60 197 4 395 14 44 28 87 30 95
2 8 9 29 15 45 6 17 13 37 15 45 2 8 19 65 40 125 20 61 38 115 39 120 2 6 6
17 9 25 3 8 42 128 87 265 45 138 85 259 90 270 12 27 63 187 66 205 2 8 7 23
13 35 10 20 180 536 186 565 2 8 11 38 20 65 10 28 18 55 20 60 1 6 7 28 13
50 6 22 13 51 15 65 3 14 10 43 15 65 6 22 14 60 18 85 3 25 8 59 11 75 9 63
12 237 4 253 -5 9 -15 30 -22 46 -31 65 -106 94 -186 71 -33 -10 -120 -61
-143 -85 -23 -24 -230 -135 -230 -123 0 3 -6 1 -12 -4 -13 -10 -84 -37 -103
-39 -5 0 -30 -6 -55 -13 -51 -15 -70 -19 -120 -27 -19 -3 -48 -8 -65 -10 -16
-3 -70 -7 -120 -10 -49 -2 -91 -4 -92 -4 -15 -6 -239 2 -423 15 -30 2 -100 6
-155 9 -55 4 -131 9 -170 11 -38 3 -110 7 -160 10 -49 3 -124 8 -165 11 -41 3
-106 7 -145 9 -38 2 -104 6 -145 9 -41 3 -122 8 -180 11 -58 3 -116 8 -130 10
-34 6 -113 14 -180 20 -30 2 -77 7 -103 10 -66 8 -128 14 -222 20 -44 4 -98 8
-120 10 -71 7 -288 18 -367 19 -43 1 -78 5 -78 9 0 5 -4 6 -9 3 -10 -6 -47 -7
-251 -6 -147 1 -423 -7 -515 -15 -27 -2 -88 -7 -135 -11 -124 -10 -145 -12
-145 -14 0 0 -22 -3 -50 -5 -27 -3 -66 -7 -85 -10 -19 -3 -46 -7 -60 -10 -14
-2 -47 -6 -75 -10 -27 -3 -57 -8 -65 -10 -8 -2 -32 -6 -54 -10 -21 -3 -41 -7
-45 -9 -3 -2 -26 -7 -51 -10 -25 -3 -60 -10 -77 -15 -18 -5 -33 -8 -33 -5 0 3
-8 0 -18 -5 -10 -5 -38 -12 -62 -16 -24 -4 -51 -10 -60 -14 -8 -5 -32 -11 -53
-15 -32 -6 -344 -105 -387 -123 -8 -3 -19 -7 -25 -9 -19 -4 -242 -102 -301
-131 -222 -111 -453 -252 -575 -350 -151 -122 -260 -228 -354 -344 -33 -41
-62 -76 -65 -79 -13 -13 -80 -121 -80 -129 0 -5 -4 -11 -9 -13 -23 -8 -142
-288 -157 -368 -3 -14 -7 -31 -9 -38 -18 -51 -26 -322 -12 -382 10 -44 17 -74
22 -103 3 -15 12 -49 21 -75 15 -45 21 -60 61 -150 43 -98 147 -255 228 -347
55 -63 95 -106 95 -102 0 2 21 -16 46 -40 26 -24 83 -70 128 -103 44 -33 86
-64 91 -68 22 -17 165 -100 230 -134 117 -61 342 -148 418 -162 12 -3 22 -5
22 -6 0 -1 7 -3 15 -5 8 -2 26 -6 40 -9 18 -4 115 -25 115 -24 0 0 16 -3 35
-6 103 -16 152 -19 340 -19 185 -1 278 4 350 18 14 2 41 6 60 9 62 8 153 27
235 48 44 11 87 21 95 23 17 4 106 33 130 42 8 4 17 7 20 8 23 6 58 18 75 25
11 4 29 12 40 16 11 4 22 8 25 9 3 1 21 9 40 16 36 15 265 129 338 169 23 13
42 27 42 32 0 4 4 8 10 8 10 0 92 51 147 92 17 12 41 30 53 38 127 86 391 330
540 500 30 35 60 68 65 74 6 6 37 43 70 81 103 120 110 127 125 143 39 40 116
144 150 202 69 117 81 201 39 287 -52 107 -139 94 -272 -40 -60 -61 -90 -96
-132 -152 -34 -45 -33 -44 -116 -150 -62 -80 -84 -105 -127 -150 -12 -13 -22
-27 -22 -31 0 -16 -326 -330 -420 -403 -159 -125 -183 -142 -306 -219 -72 -45
-253 -143 -279 -152 -5 -2 -39 -16 -75 -32 -73 -33 -290 -110 -290 -103 0 3
-17 -2 -37 -10 -21 -8 -55 -17 -77 -20 -21 -3 -42 -7 -46 -10 -4 -2 -25 -7
-46 -10 -21 -2 -50 -7 -64 -10 -89 -19 -384 -25 -525 -12 -457 45 -829 220
-1114 524 -195 207 -293 423 -292 638 1 81 28 211 56 268 8 16 15 36 15 44 0
7 4 13 9 13 5 0 12 11 15 25 4 14 11 25 16 25 6 0 10 5 10 10 0 16 88 143 155
225 110 135 290 310 409 398 28 21 58 43 66 50 36 28 138 94 175 112 22 11 42
22 45 26 14 15 151 78 355 164 87 37 349 117 523 161 81 20 237 54 273 59 24
3 60 10 79 15 19 5 62 11 95 15 32 4 62 8 65 10 3 2 34 6 70 10 36 4 76 9 90
11 14 2 57 6 95 10 39 3 86 7 105 9 94 10 345 18 525 18 259 0 505 -11 850
-38 33 -2 101 -7 150 -10 50 -2 124 -7 165 -10 83 -7 175 -14 260 -20 30 -2
93 -6 140 -10 47 -3 114 -8 150 -11 144 -10 178 -13 255 -19 44 -4 109 -8 145
-10 36 -2 65 -4 65 -5 0 0 29 -3 65 -5 36 -3 94 -7 130 -10 36 -3 94 -8 130
-10 36 -2 90 -6 120 -9 30 -2 98 -7 150 -11 228 -15 306 -37 329 -93 11 -27
11 -38 -5 -77 -11 -25 -22 -45 -26 -45 -5 0 -8 -5 -8 -10 0 -10 -37 -68 -51
-80 -3 -3 -52 -72 -109 -155 -57 -82 -108 -151 -112 -153 -4 -2 -8 -8 -8 -13
0 -5 -49 -79 -110 -164 -60 -86 -110 -160 -110 -165 0 -5 -4 -10 -8 -12 -5 -1
-38 -46 -74 -98 -119 -174 -322 -465 -328 -470 -4 -3 -9 -12 -13 -20 -4 -8
-40 -62 -81 -120 -41 -58 -114 -161 -161 -230 -47 -69 -133 -192 -190 -275
-154 -224 -298 -433 -315 -459 -13 -21 -152 -225 -204 -301 -12 -16 -23 -32
-26 -35 -3 -3 -49 -70 -103 -150 -140 -209 -184 -273 -197 -287 -6 -7 -8 -13
-3 -13 4 0 0 -6 -8 -12 -8 -7 -46 -60 -84 -118 -39 -58 -73 -109 -78 -115 -30
-39 -87 -127 -87 -135 0 -4 -4 -10 -8 -12 -7 -2 -197 -276 -227 -325 -5 -9
-14 -22 -18 -27 -5 -6 -48 -69 -97 -141 -49 -71 -93 -135 -97 -140 -4 -6 -42
-60 -83 -120 -41 -61 -78 -114 -82 -120 -4 -5 -34 -44 -65 -85 -32 -41 -62
-80 -68 -86 -5 -7 -19 -24 -30 -40 -11 -15 -25 -32 -30 -38 -6 -6 -31 -38 -55
-71 -25 -33 -48 -62 -51 -65 -18 -13 -100 -133 -113 -163 -16 -39 -14 -113 3
-155 24 -58 124 -89 186 -57 30 15 153 132 230 219 41 46 83 97 100 121 11 16
26 34 33 41 6 7 12 15 12 19 0 3 5 11 10 18 9 10 89 122 120 167 6 8 33 47 60
85 27 39 54 77 60 85 61 87 244 350 256 365 26 37 279 400 309 445 16 25 32
47 35 50 3 3 25 34 49 70 25 36 48 67 53 68 4 2 8 8 8 14 0 5 23 42 51 81 86
123 151 217 254 367 54 80 111 163 127 185 47 66 162 235 173 253 6 9 20 27
33 41 12 14 22 30 22 34 0 5 14 26 30 47 17 21 30 41 30 44 0 3 10 17 21 30
12 14 27 34 33 45 6 11 43 65 81 121 39 55 75 109 80 118 6 9 12 19 15 22 3 3
17 21 30 40 13 19 27 37 30 40 3 3 11 17 19 32 8 15 21 36 30 46 9 10 21 25
26 34 9 15 133 197 179 263 12 17 24 32 29 33 4 2 7 10 7 18 0 8 4 14 9 14 5
0 11 8 15 18 3 9 18 34 33 54 16 20 69 97 118 170 50 73 92 135 95 138 7 7 29
39 135 195 48 72 93 133 99 137 6 4 8 8 4 8 -7 0 11 25 40 56 7 8 11 14 7 14
-3 0 -1 6 5 13 6 6 82 114 168 238 86 125 171 243 187 263 17 20 38 47 48 59
76 94 152 167 172 167 34 0 57 -44 61 -114 2 -50 -6 -85 -41 -193 -25 -72 -53
-151 -64 -175 -53 -114 -115 -301 -156 -468 -14 -57 -88 -334 -100 -375 -8
-27 -17 -59 -19 -70 -2 -11 -16 -65 -30 -120 -15 -55 -29 -109 -31 -120 -3
-11 -30 -117 -60 -235 -30 -118 -57 -226 -60 -240 -2 -14 -7 -35 -10 -47 -3
-13 -7 -32 -10 -44 -2 -11 -6 -28 -9 -37 -34 -112 -36 -319 -4 -457 47 -208
196 -293 352 -201 38 22 113 93 165 156 58 71 71 89 71 98 0 6 4 12 8 14 11 4
97 146 106 175 4 11 13 27 21 33 8 7 15 21 15 30 0 10 4 20 8 22 4 2 18 23 30
48 12 25 34 65 48 90 14 25 48 90 77 145 28 55 53 102 56 105 3 3 56 104 118
225 61 121 143 281 182 355 38 74 90 173 114 220 24 47 62 116 85 154 23 37
42 70 42 72 0 10 95 169 102 172 4 2 8 8 8 13 0 5 18 39 40 75 22 36 40 68 40
71 0 2 16 29 35 59 19 30 35 59 35 64 0 6 5 10 10 10 6 0 10 4 10 10 0 5 18
39 40 75 22 36 40 70 40 75 0 6 4 10 9 10 5 0 12 8 15 18 6 18 67 118 86 139
5 7 10 16 10 20 1 4 21 40 45 78 25 39 48 77 52 85 3 8 21 39 40 68 18 29 33
57 33 62 0 6 4 10 8 10 5 0 16 15 25 33 9 17 27 50 41 72 54 90 254 434 283
485 60 110 82 147 166 285 48 78 142 217 169 249 78 92 170 176 218 198 64 29
97 27 111 -8 34 -91 3 -194 -143 -469 -45 -85 -128 -259 -129 -272 -1 -5 -12
-27 -26 -50 -14 -24 -21 -43 -16 -43 4 0 3 -4 -2 -8 -6 -4 -26 -41 -45 -82
-46 -103 -95 -209 -141 -308 -21 -46 -39 -85 -39 -87 0 -2 -18 -42 -41 -91
-36 -76 -58 -127 -64 -144 -1 -3 -12 -27 -25 -55 -13 -27 -25 -52 -25 -55 -2
-8 -21 -51 -48 -110 -53 -117 -198 -463 -267 -640 -39 -102 -76 -194 -81 -205
-19 -45 -154 -417 -163 -450 -1 -5 -26 -84 -55 -175 -52 -164 -56 -176 -61
-195 -2 -5 -11 -34 -21 -62 -10 -29 -16 -53 -13 -53 2 0 -2 -16 -10 -35 -8
-19 -13 -35 -11 -35 2 0 -3 -19 -11 -42 -14 -40 -29 -100 -40 -157 -3 -13 -10
-34 -16 -45 -6 -12 -10 -22 -9 -24 2 -2 -8 -52 -25 -127 -19 -86 -46 -217 -50
-240 -5 -41 -13 -86 -18 -110 -2 -11 -7 -45 -10 -76 -4 -31 -9 -67 -11 -80 -3
-13 -8 -58 -11 -99 -4 -41 -8 -93 -10 -115 -5 -62 -5 -394 0 -455 3 -30 8
-100 11 -155 8 -156 17 -210 47 -303 54 -168 237 -214 304 -75 19 42 22 136 5
201 -10 38 -16 83 -28 212 -15 157 -7 607 13 715 3 15 7 48 9 74 2 25 5 47 6
49 3 4 5 14 13 67 4 28 18 104 31 170 13 66 26 131 28 145 3 14 10 43 15 65 6
22 13 51 16 65 8 44 86 343 92 351 3 5 7 18 9 29 2 11 20 73 40 137 20 65 38
123 38 128 1 6 4 12 7 15 4 3 12 25 19 50 20 71 133 387 166 465 7 17 21 53
30 80 10 28 22 54 27 60 4 5 8 14 8 21 0 6 10 33 22 60 12 27 22 51 23 54 0 3
4 11 8 18 5 6 5 12 2 12 -3 0 1 12 9 28 23 41 86 194 86 208 0 6 7 17 15 24 8
7 15 20 15 29 0 9 12 39 25 66 14 28 25 53 25 57 0 4 13 35 29 70 72 157 89
198 83 198 -4 0 -2 4 3 8 6 4 33 57 60 117 54 122 93 210 135 300 15 33 51
111 79 174 29 62 56 121 61 130 4 9 17 36 28 61 45 98 190 413 259 560 20 41
48 102 63 135 30 66 79 172 115 250 13 28 35 76 49 108 14 31 37 81 50 110 86
186 141 374 133 455 -7 76 -9 81 -35 124 -20 32 -83 89 -97 88 -3 0 -19 7 -36
15 -42 22 -118 15 -183 -16z"/>
</g>
</svg>
